<?xml version="1.0" encoding="UTF-8" standalone="no"?>
<svg
   id="svg1035"
   viewBox="0 0 374.5 377.3"
   width="2481"
   height="2500"
   version="1.1"
   sodipodi:docname="beth.svg"
   inkscape:version="1.2.2 (b0a8486541, 2022-12-01)"
   inkscape:export-filename="beth.png"
   inkscape:export-xdpi="96"
   inkscape:export-ydpi="96"
   xmlns:inkscape="http://www.inkscape.org/namespaces/inkscape"
   xmlns:sodipodi="http://sodipodi.sourceforge.net/DTD/sodipodi-0.dtd"
   xmlns="http://www.w3.org/2000/svg"
   xmlns:svg="http://www.w3.org/2000/svg">
  <defs
     id="defs11" />
  <sodipodi:namedview
     id="namedview9"
     pagecolor="#ffffff"
     bordercolor="#000000"
     borderopacity="0.25"
     inkscape:showpageshadow="2"
     inkscape:pageopacity="0.0"
     inkscape:pagecheckerboard="0"
     inkscape:deskcolor="#d1d1d1"
     showgrid="false"
     inkscape:zoom="0.081731403"
     inkscape:cx="-783.05275"
     inkscape:cy="3835.735"
     inkscape:window-width="1920"
     inkscape:window-height="1000"
     inkscape:window-x="0"
     inkscape:window-y="0"
     inkscape:window-maximized="1"
     inkscape:current-layer="g271"
     inkscape:lockguides="false" />
  <style
     id="style2">.st0{fill:#00bef2}.st1{fill:#fff;stroke:#fff;stroke-width:1.2357;stroke-linecap:round;stroke-linejoin:round}</style>
  <g
     id="g1016"
     transform="translate(-102.969,-166.294)">
    <path
       id="path1008"
       class="st0"
       d="m 290,543.63375 c 0.4,0 0.8,-0.5 1.4,-1.4 0.5,-0.8 49.73762,-49.29073 100.73762,-110.19073 51,-60.9 85.46238,-113.00927 85.26238,-113.30927 -0.1,-0.3 -23.29818,-46.75793 -72.79818,-87.05793 -49.5,-40.3 -109.00182,-61.44207 -110.90182,-63.04207 -3.3,-2.7 -3.5,-2.8 -4.7,-1.6 -0.7,0.7 -57.62404,24.80623 -108.52404,66.30623 -50.9,41.5 -77.67596,86.09377 -77.47596,86.59377 0.2,0.5 36.52614,55.94147 87.62614,116.54147 51.1,60.6 98.37386,105.15853 98.57386,105.95853 0.2,0.8 0.5,1.2 0.8,1.2 z"
       sodipodi:nodetypes="scscscssssss"
       style="fill:#0070f3;fill-opacity:1" />
    <g
       id="g271">
      <path
         id="path923"
         class="st1"
         d="m 282.685,462.26038 c -5.8,-2.1 -12.8,-8.1 -15.7,-13.7 -3.6,-6.9 -3.3,-17.7 0.7,-26.3 3.1,-6.4 3.1,-6.6 1.1,-8.1 -1.1,-0.8 -14.4,-8.2 -29.4,-16.3 -15,-8.1 -28.1,-15.2 -29,-15.7 -1.2,-0.7 -3.2,0 -6.8,2.3 -11.7,7.4 -23.9,6.6 -33.5,-2.3 -6.9,-6.4 -8.9,-10.9 -8.9,-20.1 0,-8.9 1.8,-13.5 7.5,-19.2 7.7,-7.7 18,-10.3 27.9,-7 5.4,1.8 5.5,1.8 8.9,-0.8 4,-3 36.1,-32.3 51.6,-47 l 10.7,-10.2 -3.2,-6.7 c -6.5,-13.5 -3.2,-28.5 8.2,-37.5 6.2,-4.9 10.8,-6.4 19.7,-6.4 20.8,0 35.3,21.8 27.5,41.3 -2.1,5.4 -2.1,5.5 -0.1,8.8 1.7,2.9 30.6,37.8 45.9,55.6 2.7,3.1 5.7,5.6 6.7,5.6 1,0 4.4,-1 7.6,-2.2 14.9,-5.9 30.6,0.7 36.8,15.5 4,9.5 0.5,22.3 -8,30 -6,5.4 -10.4,7.1 -18.4,7.1 -5.6,0 -7.7,-0.6 -13.6,-3.8 -4.4,-2.4 -7.8,-3.6 -9.2,-3.2 -2.4,0.6 -39.3,25.9 -47.5,32.5 -5,4.1 -5.4,5.6 -2.8,11.7 2.5,6 2.2,15.4 -0.6,21.3 -3.1,6.5 -10.8,13 -17.5,15 -6.8,1.9 -10.9,1.9 -16.6,-0.2 z m 4.81719,-110.2 0.20844,-56.30708 -6.52563,-5.09292 c -1.8,-2.4 -3.5,-4.4 -3.8,-4.4 -1.3,0 -65.9,58.7 -65.9,59.9 0,0.3 1,3.3 2.2,6.5 1.2,3.3 2.1,8 2,10.7 -0.1,2.7 -0.1,5.7 -0.1,6.7 0.1,2.3 21.7,16.1 54.1,34.8 8.9,5.2 18.99866,6.43052 16.56459,5.04604 1.3,-1.1 1.08158,-11.64636 1.2526,-57.84604 z m 24.28281,50.4 c 42.8,-26.9 50.8,-32.3 51.3,-34.3 0.3,-1.2 0.7,-5.9 0.8,-10.6 l 0.3,-8.4 -21.8,-25.9 c -23.4,-27.7 -32,-37.1 -34,-37.1 -0.7,0 -4.2,2 -7.8,4.4 l -2.37489,3.77656 0.57792,58.4924 c 0.3,51 0.83896,58.0076 2.73896,58.0076 0.2,0.1 2.35801,-3.37656 10.25801,-8.37656 z"
         sodipodi:nodetypes="ccccscccssscccccscccscccscccccccsccsscscccscscccsscccc"
         style="fill:#ffd700;fill-opacity:1" />
    </g>
  </g>
</svg>
